<mxfile host="app.diagrams.net" agent="Mozilla/5.0 (X11; Linux x86_64) AppleWebKit/537.36 (KHTML, like Gecko) Chrome/134.0.0.0 Safari/537.36" version="28.2.7">
  <diagram name="Page-1" id="rpcb4mzmXCl31CcHwljb">
    <mxGraphModel dx="870" dy="566" grid="1" gridSize="10" guides="1" tooltips="1" connect="1" arrows="1" fold="1" page="1" pageScale="1" pageWidth="3300" pageHeight="2339" math="0" shadow="0">
      <root>
        <mxCell id="0" />
        <mxCell id="1" parent="0" />
        <mxCell id="9eICvYnxZosk0hdtQ2a_-1" value="Parish register after 1970&amp;nbsp;" style="swimlane;fontStyle=0;childLayout=stackLayout;horizontal=1;startSize=26;strokeColor=#DAEEF3;strokeWidth=3;fillColor=none;horizontalStack=0;resizeParent=1;resizeParentMax=0;resizeLast=0;collapsible=1;marginBottom=0;whiteSpace=wrap;html=1;" parent="1" vertex="1">
          <mxGeometry x="990" y="787" width="270" height="52" as="geometry" />
        </mxCell>
        <mxCell id="9eICvYnxZosk0hdtQ2a_-2" value="Record Set" style="text;strokeColor=#DAEEF3;strokeWidth=3;fillColor=none;align=center;verticalAlign=top;spacingLeft=4;spacingRight=4;overflow=hidden;rotatable=0;points=[[0,0.5],[1,0.5]];portConstraint=eastwest;whiteSpace=wrap;html=1;" parent="9eICvYnxZosk0hdtQ2a_-1" vertex="1">
          <mxGeometry y="26" width="270" height="26" as="geometry" />
        </mxCell>
        <mxCell id="S63EhYjACRCDa8wTgJug-1" value="Marriages, christenings, funerals, and other ceremonies at a church after 1970" style="swimlane;fontStyle=0;childLayout=stackLayout;horizontal=1;startSize=40;strokeColor=#FFFAA0;strokeWidth=3;fillColor=none;horizontalStack=0;resizeParent=1;resizeParentMax=0;resizeLast=0;collapsible=1;marginBottom=0;whiteSpace=wrap;html=1;" parent="1" vertex="1">
          <mxGeometry x="1500" y="780" width="250" height="66" as="geometry" />
        </mxCell>
        <mxCell id="S63EhYjACRCDa8wTgJug-2" value="Activity" style="text;strokeColor=#FFFAA0;strokeWidth=3;fillColor=none;align=center;verticalAlign=top;spacingLeft=4;spacingRight=4;overflow=hidden;rotatable=0;points=[[0,0.5],[1,0.5]];portConstraint=eastwest;whiteSpace=wrap;html=1;" parent="S63EhYjACRCDa8wTgJug-1" vertex="1">
          <mxGeometry y="40" width="250" height="26" as="geometry" />
        </mxCell>
        <mxCell id="S63EhYjACRCDa8wTgJug-3" value="" style="endArrow=classic;html=1;rounded=0;entryX=0;entryY=0.5;entryDx=0;entryDy=0;exitX=1;exitY=0.5;exitDx=0;exitDy=0;" parent="1" source="9eICvYnxZosk0hdtQ2a_-1" target="S63EhYjACRCDa8wTgJug-1" edge="1">
          <mxGeometry relative="1" as="geometry">
            <mxPoint x="1370" y="727" as="sourcePoint" />
            <mxPoint x="1567" y="727" as="targetPoint" />
          </mxGeometry>
        </mxCell>
        <mxCell id="S63EhYjACRCDa8wTgJug-4" value="documents" style="edgeLabel;resizable=0;html=1;;align=center;verticalAlign=middle;" parent="S63EhYjACRCDa8wTgJug-3" connectable="0" vertex="1">
          <mxGeometry relative="1" as="geometry" />
        </mxCell>
        <mxCell id="S63EhYjACRCDa8wTgJug-5" value="1970" style="swimlane;fontStyle=0;childLayout=stackLayout;horizontal=1;startSize=30;strokeColor=#DDD9C3;strokeWidth=2;fillColor=none;horizontalStack=0;resizeParent=1;resizeParentMax=0;resizeLast=0;collapsible=1;marginBottom=0;whiteSpace=wrap;html=1;" parent="1" vertex="1">
          <mxGeometry x="1562.5" y="1044" width="120" height="56" as="geometry" />
        </mxCell>
        <mxCell id="S63EhYjACRCDa8wTgJug-6" value="Date" style="text;strokeColor=#DDD9C3;strokeWidth=2;fillColor=#DDD9C3;align=center;verticalAlign=top;spacingLeft=4;spacingRight=4;overflow=hidden;rotatable=0;points=[[0,0.5],[1,0.5]];portConstraint=eastwest;whiteSpace=wrap;html=1;" parent="S63EhYjACRCDa8wTgJug-5" vertex="1">
          <mxGeometry y="30" width="120" height="26" as="geometry" />
        </mxCell>
        <mxCell id="S63EhYjACRCDa8wTgJug-7" value="" style="endArrow=classic;html=1;rounded=0;entryX=0.472;entryY=-0.023;entryDx=0;entryDy=0;entryPerimeter=0;" parent="1" target="S63EhYjACRCDa8wTgJug-5" edge="1">
          <mxGeometry relative="1" as="geometry">
            <mxPoint x="1620" y="850" as="sourcePoint" />
            <mxPoint x="1620" y="1040" as="targetPoint" />
          </mxGeometry>
        </mxCell>
        <mxCell id="S63EhYjACRCDa8wTgJug-8" value="has beginning date" style="edgeLabel;resizable=0;html=1;;align=center;verticalAlign=middle;" parent="S63EhYjACRCDa8wTgJug-7" connectable="0" vertex="1">
          <mxGeometry relative="1" as="geometry" />
        </mxCell>
        <mxCell id="S63EhYjACRCDa8wTgJug-9" value="" style="endArrow=classic;html=1;rounded=0;exitX=0.767;exitY=1.192;exitDx=0;exitDy=0;exitPerimeter=0;entryX=0.007;entryY=-0.045;entryDx=0;entryDy=0;entryPerimeter=0;" parent="1" source="9eICvYnxZosk0hdtQ2a_-2" target="S63EhYjACRCDa8wTgJug-6" edge="1">
          <mxGeometry relative="1" as="geometry">
            <mxPoint x="1147" y="904" as="sourcePoint" />
            <mxPoint x="1560" y="1010" as="targetPoint" />
          </mxGeometry>
        </mxCell>
        <mxCell id="S63EhYjACRCDa8wTgJug-10" value="has beginning date" style="edgeLabel;resizable=0;html=1;;align=center;verticalAlign=middle;" parent="S63EhYjACRCDa8wTgJug-9" connectable="0" vertex="1">
          <mxGeometry relative="1" as="geometry" />
        </mxCell>
        <mxCell id="AIsGsS2JBfu4cgLnV8Io-3" value="Parish register entry for a marriage after 1970" style="swimlane;fontStyle=0;childLayout=stackLayout;horizontal=1;startSize=30;strokeColor=#DAEEF3;strokeWidth=3;fillColor=none;horizontalStack=0;resizeParent=1;resizeParentMax=0;resizeLast=0;collapsible=1;marginBottom=0;whiteSpace=wrap;html=1;" parent="1" vertex="1">
          <mxGeometry x="1002.5" y="590" width="247.5" height="56" as="geometry" />
        </mxCell>
        <mxCell id="AIsGsS2JBfu4cgLnV8Io-4" value="Record" style="text;strokeColor=#DAEEF3;strokeWidth=3;fillColor=none;align=center;verticalAlign=top;spacingLeft=4;spacingRight=4;overflow=hidden;rotatable=0;points=[[0,0.5],[1,0.5]];portConstraint=eastwest;whiteSpace=wrap;html=1;" parent="AIsGsS2JBfu4cgLnV8Io-3" vertex="1">
          <mxGeometry y="30" width="247.5" height="26" as="geometry" />
        </mxCell>
        <mxCell id="AIsGsS2JBfu4cgLnV8Io-6" value="" style="endArrow=classic;html=1;rounded=0;entryX=0.533;entryY=0.058;entryDx=0;entryDy=0;entryPerimeter=0;exitX=0.531;exitY=0.981;exitDx=0;exitDy=0;exitPerimeter=0;" parent="1" source="AIsGsS2JBfu4cgLnV8Io-4" target="9eICvYnxZosk0hdtQ2a_-1" edge="1">
          <mxGeometry relative="1" as="geometry">
            <mxPoint x="1134" y="660" as="sourcePoint" />
            <mxPoint x="1400" y="740" as="targetPoint" />
          </mxGeometry>
        </mxCell>
        <mxCell id="AIsGsS2JBfu4cgLnV8Io-7" value="is or was included in" style="edgeLabel;resizable=0;html=1;;align=center;verticalAlign=middle;" parent="AIsGsS2JBfu4cgLnV8Io-6" connectable="0" vertex="1">
          <mxGeometry relative="1" as="geometry" />
        </mxCell>
        <mxCell id="AIsGsS2JBfu4cgLnV8Io-8" value="A marriage within a church ceremony after 1970" style="swimlane;fontStyle=0;childLayout=stackLayout;horizontal=1;startSize=40;strokeColor=#FFFAA0;strokeWidth=2;fillColor=none;horizontalStack=0;resizeParent=1;resizeParentMax=0;resizeLast=0;collapsible=1;marginBottom=0;whiteSpace=wrap;html=1;" parent="1" vertex="1">
          <mxGeometry x="1515" y="585" width="200" height="66" as="geometry" />
        </mxCell>
        <mxCell id="AIsGsS2JBfu4cgLnV8Io-9" value="Activity" style="text;strokeColor=#FFFAA0;strokeWidth=2;fillColor=#FFFFFF;align=center;verticalAlign=top;spacingLeft=4;spacingRight=4;overflow=hidden;rotatable=0;points=[[0,0.5],[1,0.5]];portConstraint=eastwest;whiteSpace=wrap;html=1;" parent="AIsGsS2JBfu4cgLnV8Io-8" vertex="1">
          <mxGeometry y="40" width="200" height="26" as="geometry" />
        </mxCell>
        <mxCell id="AIsGsS2JBfu4cgLnV8Io-10" value="" style="endArrow=classic;html=1;rounded=0;entryX=0.481;entryY=0.008;entryDx=0;entryDy=0;entryPerimeter=0;" parent="1" target="S63EhYjACRCDa8wTgJug-1" edge="1">
          <mxGeometry relative="1" as="geometry">
            <mxPoint x="1620" y="652" as="sourcePoint" />
            <mxPoint x="1628" y="780" as="targetPoint" />
          </mxGeometry>
        </mxCell>
        <mxCell id="AIsGsS2JBfu4cgLnV8Io-11" value="is or was subevent of" style="edgeLabel;resizable=0;html=1;;align=center;verticalAlign=middle;" parent="AIsGsS2JBfu4cgLnV8Io-10" connectable="0" vertex="1">
          <mxGeometry relative="1" as="geometry" />
        </mxCell>
        <mxCell id="AIsGsS2JBfu4cgLnV8Io-12" value="" style="endArrow=classic;html=1;rounded=0;entryX=0;entryY=0.5;entryDx=0;entryDy=0;exitX=1;exitY=0.5;exitDx=0;exitDy=0;" parent="1" source="AIsGsS2JBfu4cgLnV8Io-3" target="AIsGsS2JBfu4cgLnV8Io-8" edge="1">
          <mxGeometry relative="1" as="geometry">
            <mxPoint x="1247.5" y="624" as="sourcePoint" />
            <mxPoint x="1455.5" y="622" as="targetPoint" />
          </mxGeometry>
        </mxCell>
        <mxCell id="AIsGsS2JBfu4cgLnV8Io-13" value="documents" style="edgeLabel;resizable=0;html=1;;align=center;verticalAlign=middle;" parent="AIsGsS2JBfu4cgLnV8Io-12" connectable="0" vertex="1">
          <mxGeometry relative="1" as="geometry" />
        </mxCell>
        <mxCell id="pV9FwaY-A3g4o-simPut-1" value="State civil register entry for a marriage after 1970" style="swimlane;fontStyle=0;childLayout=stackLayout;horizontal=1;startSize=40;strokeColor=#DAEEF3;strokeWidth=3;fillColor=none;horizontalStack=0;resizeParent=1;resizeParentMax=0;resizeLast=0;collapsible=1;marginBottom=0;whiteSpace=wrap;html=1;" parent="1" vertex="1">
          <mxGeometry x="1480" y="380" width="270" height="66" as="geometry" />
        </mxCell>
        <mxCell id="pV9FwaY-A3g4o-simPut-2" value="Record" style="text;strokeColor=#DAEEF3;strokeWidth=3;fillColor=none;align=center;verticalAlign=top;spacingLeft=4;spacingRight=4;overflow=hidden;rotatable=0;points=[[0,0.5],[1,0.5]];portConstraint=eastwest;whiteSpace=wrap;html=1;" parent="pV9FwaY-A3g4o-simPut-1" vertex="1">
          <mxGeometry y="40" width="270" height="26" as="geometry" />
        </mxCell>
        <mxCell id="pV9FwaY-A3g4o-simPut-3" value="" style="endArrow=classic;html=1;rounded=0;exitX=0.517;exitY=1.077;exitDx=0;exitDy=0;exitPerimeter=0;" parent="1" source="pV9FwaY-A3g4o-simPut-2" edge="1">
          <mxGeometry relative="1" as="geometry">
            <mxPoint x="1580" y="491" as="sourcePoint" />
            <mxPoint x="1619" y="583" as="targetPoint" />
          </mxGeometry>
        </mxCell>
        <mxCell id="pV9FwaY-A3g4o-simPut-4" value="documents" style="edgeLabel;resizable=0;html=1;;align=center;verticalAlign=middle;" parent="pV9FwaY-A3g4o-simPut-3" connectable="0" vertex="1">
          <mxGeometry relative="1" as="geometry" />
        </mxCell>
        <mxCell id="pV9FwaY-A3g4o-simPut-11" value="" style="endArrow=classic;html=1;rounded=0;entryX=0;entryY=0.5;entryDx=0;entryDy=0;exitX=0.538;exitY=-0.011;exitDx=0;exitDy=0;exitPerimeter=0;startArrow=classic;startFill=1;" parent="1" source="AIsGsS2JBfu4cgLnV8Io-3" target="pV9FwaY-A3g4o-simPut-1" edge="1">
          <mxGeometry relative="1" as="geometry">
            <mxPoint x="1132.5" y="541" as="sourcePoint" />
            <mxPoint x="1450" y="540" as="targetPoint" />
          </mxGeometry>
        </mxCell>
        <mxCell id="pV9FwaY-A3g4o-simPut-12" value="is record resource associated with record resource" style="edgeLabel;resizable=0;html=1;;align=center;verticalAlign=middle;" parent="pV9FwaY-A3g4o-simPut-11" connectable="0" vertex="1">
          <mxGeometry relative="1" as="geometry" />
        </mxCell>
        <mxCell id="pV9FwaY-A3g4o-simPut-13" value="Marriages, births, and deaths in Norway after 1970" style="swimlane;fontStyle=0;childLayout=stackLayout;horizontal=1;startSize=34;strokeColor=#FFFAA0;strokeWidth=3;fillColor=none;horizontalStack=0;resizeParent=1;resizeParentMax=0;resizeLast=0;collapsible=1;marginBottom=0;whiteSpace=wrap;html=1;" parent="1" vertex="1">
          <mxGeometry x="2107.5" y="1040" width="230" height="60" as="geometry" />
        </mxCell>
        <mxCell id="pV9FwaY-A3g4o-simPut-14" value="Activity" style="text;strokeColor=#FFFAA0;strokeWidth=3;fillColor=none;align=center;verticalAlign=top;spacingLeft=4;spacingRight=4;overflow=hidden;rotatable=0;points=[[0,0.5],[1,0.5]];portConstraint=eastwest;whiteSpace=wrap;html=1;" parent="pV9FwaY-A3g4o-simPut-13" vertex="1">
          <mxGeometry y="34" width="230" height="26" as="geometry" />
        </mxCell>
        <mxCell id="pV9FwaY-A3g4o-simPut-16" value="Folkeregisteret (state civil register)" style="swimlane;fontStyle=0;childLayout=stackLayout;horizontal=1;startSize=26;strokeColor=#DAEEF3;strokeWidth=3;fillColor=none;horizontalStack=0;resizeParent=1;resizeParentMax=0;resizeLast=0;collapsible=1;marginBottom=0;whiteSpace=wrap;html=1;" parent="1" vertex="1">
          <mxGeometry x="2107.5" y="380" width="270" height="52" as="geometry" />
        </mxCell>
        <mxCell id="pV9FwaY-A3g4o-simPut-17" value="Record Set" style="text;strokeColor=#DAEEF3;strokeWidth=3;fillColor=none;align=center;verticalAlign=top;spacingLeft=4;spacingRight=4;overflow=hidden;rotatable=0;points=[[0,0.5],[1,0.5]];portConstraint=eastwest;whiteSpace=wrap;html=1;" parent="pV9FwaY-A3g4o-simPut-16" vertex="1">
          <mxGeometry y="26" width="270" height="26" as="geometry" />
        </mxCell>
        <mxCell id="pV9FwaY-A3g4o-simPut-18" value="" style="endArrow=classic;html=1;rounded=0;entryX=0.006;entryY=0.231;entryDx=0;entryDy=0;entryPerimeter=0;exitX=1;exitY=0.5;exitDx=0;exitDy=0;" parent="1" source="pV9FwaY-A3g4o-simPut-1" target="pV9FwaY-A3g4o-simPut-17" edge="1">
          <mxGeometry relative="1" as="geometry">
            <mxPoint x="1810" y="400" as="sourcePoint" />
            <mxPoint x="1810" y="544" as="targetPoint" />
          </mxGeometry>
        </mxCell>
        <mxCell id="pV9FwaY-A3g4o-simPut-19" value="is or was included in" style="edgeLabel;resizable=0;html=1;;align=center;verticalAlign=middle;" parent="pV9FwaY-A3g4o-simPut-18" connectable="0" vertex="1">
          <mxGeometry relative="1" as="geometry" />
        </mxCell>
        <mxCell id="pV9FwaY-A3g4o-simPut-20" value="" style="endArrow=classic;html=1;rounded=0;entryX=0.468;entryY=0.014;entryDx=0;entryDy=0;exitX=0.436;exitY=1.117;exitDx=0;exitDy=0;exitPerimeter=0;entryPerimeter=0;" parent="1" source="pV9FwaY-A3g4o-simPut-17" target="pV9FwaY-A3g4o-simPut-13" edge="1">
          <mxGeometry relative="1" as="geometry">
            <mxPoint x="2090" y="705" as="sourcePoint" />
            <mxPoint x="2330" y="705" as="targetPoint" />
          </mxGeometry>
        </mxCell>
        <mxCell id="pV9FwaY-A3g4o-simPut-21" value="documents" style="edgeLabel;resizable=0;html=1;;align=center;verticalAlign=middle;" parent="pV9FwaY-A3g4o-simPut-20" connectable="0" vertex="1">
          <mxGeometry relative="1" as="geometry" />
        </mxCell>
        <mxCell id="pV9FwaY-A3g4o-simPut-22" value="" style="endArrow=classic;html=1;rounded=0;exitX=0;exitY=0.5;exitDx=0;exitDy=0;entryX=1;entryY=0.5;entryDx=0;entryDy=0;" parent="1" source="pV9FwaY-A3g4o-simPut-13" target="S63EhYjACRCDa8wTgJug-5" edge="1">
          <mxGeometry relative="1" as="geometry">
            <mxPoint x="1651.5" y="974" as="sourcePoint" />
            <mxPoint x="1487.5" y="1092" as="targetPoint" />
          </mxGeometry>
        </mxCell>
        <mxCell id="pV9FwaY-A3g4o-simPut-23" value="has beginning date" style="edgeLabel;resizable=0;html=1;;align=center;verticalAlign=middle;" parent="pV9FwaY-A3g4o-simPut-22" connectable="0" vertex="1">
          <mxGeometry relative="1" as="geometry" />
        </mxCell>
        <mxCell id="pV9FwaY-A3g4o-simPut-24" value="All marriages in Norway to be registered in Folkeregisteret" style="swimlane;fontStyle=0;childLayout=stackLayout;horizontal=1;startSize=40;strokeColor=#EAF1DD;strokeWidth=2;fillColor=none;horizontalStack=0;resizeParent=1;resizeParentMax=0;resizeLast=0;collapsible=1;marginBottom=0;whiteSpace=wrap;html=1;" parent="1" vertex="1">
          <mxGeometry x="1840" y="620" width="240" height="66" as="geometry" />
        </mxCell>
        <mxCell id="pV9FwaY-A3g4o-simPut-25" value="Rule&lt;div&gt;&lt;br&gt;&lt;/div&gt;" style="text;strokeColor=#EAF1DD;strokeWidth=2;fillColor=#EAF1DD;align=center;verticalAlign=top;spacingLeft=4;spacingRight=4;overflow=hidden;rotatable=0;points=[[0,0.5],[1,0.5]];portConstraint=eastwest;whiteSpace=wrap;html=1;" parent="pV9FwaY-A3g4o-simPut-24" vertex="1">
          <mxGeometry y="40" width="240" height="26" as="geometry" />
        </mxCell>
        <mxCell id="pV9FwaY-A3g4o-simPut-26" value="" style="endArrow=classic;html=1;rounded=0;entryX=0.826;entryY=1.01;entryDx=0;entryDy=0;entryPerimeter=0;exitX=0.25;exitY=0;exitDx=0;exitDy=0;" parent="1" source="pV9FwaY-A3g4o-simPut-24" target="pV9FwaY-A3g4o-simPut-2" edge="1">
          <mxGeometry relative="1" as="geometry">
            <mxPoint x="1680" y="570" as="sourcePoint" />
            <mxPoint x="2039" y="713" as="targetPoint" />
          </mxGeometry>
        </mxCell>
        <mxCell id="pV9FwaY-A3g4o-simPut-27" value="regulates or regulated" style="edgeLabel;resizable=0;html=1;;align=center;verticalAlign=middle;" parent="pV9FwaY-A3g4o-simPut-26" connectable="0" vertex="1">
          <mxGeometry relative="1" as="geometry" />
        </mxCell>
        <mxCell id="pV9FwaY-A3g4o-simPut-28" value="" style="endArrow=classic;html=1;rounded=0;entryX=0.202;entryY=1.077;entryDx=0;entryDy=0;entryPerimeter=0;exitX=0.75;exitY=0;exitDx=0;exitDy=0;" parent="1" source="pV9FwaY-A3g4o-simPut-24" target="pV9FwaY-A3g4o-simPut-17" edge="1">
          <mxGeometry relative="1" as="geometry">
            <mxPoint x="1950" y="774" as="sourcePoint" />
            <mxPoint x="1810" y="540" as="targetPoint" />
          </mxGeometry>
        </mxCell>
        <mxCell id="pV9FwaY-A3g4o-simPut-29" value="regulates or regulated" style="edgeLabel;resizable=0;html=1;;align=center;verticalAlign=middle;" parent="pV9FwaY-A3g4o-simPut-28" connectable="0" vertex="1">
          <mxGeometry relative="1" as="geometry" />
        </mxCell>
        <mxCell id="pV9FwaY-A3g4o-simPut-30" value="" style="endArrow=classic;html=1;rounded=0;exitX=0.5;exitY=1;exitDx=0;exitDy=0;entryX=0.84;entryY=-0.036;entryDx=0;entryDy=0;entryPerimeter=0;" parent="1" source="pV9FwaY-A3g4o-simPut-24" target="S63EhYjACRCDa8wTgJug-5" edge="1">
          <mxGeometry relative="1" as="geometry">
            <mxPoint x="2030" y="819" as="sourcePoint" />
            <mxPoint x="1646" y="980" as="targetPoint" />
          </mxGeometry>
        </mxCell>
        <mxCell id="pV9FwaY-A3g4o-simPut-31" value="has beginning date" style="edgeLabel;resizable=0;html=1;;align=center;verticalAlign=middle;" parent="pV9FwaY-A3g4o-simPut-30" connectable="0" vertex="1">
          <mxGeometry relative="1" as="geometry" />
        </mxCell>
        <mxCell id="pV9FwaY-A3g4o-simPut-32" value="" style="endArrow=classic;html=1;rounded=0;exitX=0.8;exitY=1.038;exitDx=0;exitDy=0;exitPerimeter=0;entryX=0;entryY=0.25;entryDx=0;entryDy=0;jumpStyle=gap;jumpSize=19;" parent="1" source="AIsGsS2JBfu4cgLnV8Io-9" target="pV9FwaY-A3g4o-simPut-13" edge="1">
          <mxGeometry relative="1" as="geometry">
            <mxPoint x="1638" y="657" as="sourcePoint" />
            <mxPoint x="1638" y="790" as="targetPoint" />
          </mxGeometry>
        </mxCell>
        <mxCell id="pV9FwaY-A3g4o-simPut-33" value="is or was subevent of" style="edgeLabel;resizable=0;html=1;;align=center;verticalAlign=middle;" parent="pV9FwaY-A3g4o-simPut-32" connectable="0" vertex="1">
          <mxGeometry relative="1" as="geometry">
            <mxPoint x="76" y="69" as="offset" />
          </mxGeometry>
        </mxCell>
      </root>
    </mxGraphModel>
  </diagram>
</mxfile>
